<svg width="20" height="20" viewBox="0 0 20 20" fill="none" xmlns="http://www.w3.org/2000/svg">
<path d="M2.5 7.5C2.5 7.05798 2.67559 6.63405 2.98816 6.32149C3.30072 6.00893 3.72464 5.83334 4.16667 5.83334H15.8333C16.2754 5.83334 16.6993 6.00893 17.0118 6.32149C17.3244 6.63405 17.5 7.05798 17.5 7.5V16.6667C17.5 17.1087 17.3244 17.5326 17.0118 17.8452C16.6993 18.1577 16.2754 18.3333 15.8333 18.3333H4.16667C3.72464 18.3333 3.30072 18.1577 2.98816 17.8452C2.67559 17.5326 2.5 17.1087 2.5 16.6667V7.5Z" stroke="#888888" stroke-linecap="round" stroke-linejoin="round"/>
<path d="M6.66666 8.33333V5C6.66666 4.11594 7.01785 3.2681 7.64297 2.64297C8.26809 2.01785 9.11593 1.66666 9.99999 1.66666C10.884 1.66666 11.7319 2.01785 12.357 2.64297C12.9821 3.2681 13.3333 4.11594 13.3333 5V8.07416" stroke="#888888" stroke-linecap="round" stroke-linejoin="round"/>
</svg>
