<svg width="18" height="16" viewBox="0 0 18 16" fill="none" xmlns="http://www.w3.org/2000/svg">
<path d="M8.17663 14.711L1.99259 8.2715C0.251088 6.4577 0.36111 3.48395 2.23149 1.81476C4.08694 0.158921 6.90037 0.480344 8.36681 2.51654L8.61357 2.8584L8.86034 2.51654C10.3268 0.480344 13.1402 0.158921 14.9957 1.81476C16.866 3.48474 16.9761 6.45927 15.2338 8.27229L9.04895 14.7125C8.99291 14.7718 8.92535 14.819 8.85042 14.8513C8.77549 14.8836 8.69477 14.9003 8.61318 14.9003C8.53159 14.9003 8.45087 14.8836 8.37594 14.8513C8.30101 14.819 8.23346 14.7718 8.17741 14.7125L8.17663 14.711Z" stroke="#555555" stroke-width="1.50888" stroke-linecap="round" stroke-linejoin="round"/>
</svg>
