<svg width="72" height="40" viewBox="0 0 72 40" fill="none" xmlns="http://www.w3.org/2000/svg">
<path d="M28.5 17.4999C28.5 17.0579 28.6756 16.634 28.9882 16.3214C29.3007 16.0088 29.7246 15.8333 30.1667 15.8333H41.8333C42.2754 15.8333 42.6993 16.0088 43.0118 16.3214C43.3244 16.634 43.5 17.0579 43.5 17.4999V26.6666C43.5 27.1086 43.3244 27.5325 43.0118 27.8451C42.6993 28.1577 42.2754 28.3333 41.8333 28.3333H30.1667C29.7246 28.3333 29.3007 28.1577 28.9882 27.8451C28.6756 27.5325 28.5 27.1086 28.5 26.6666V17.4999Z" stroke="#555555" stroke-linecap="round" stroke-linejoin="round"/>
<path d="M32.6667 18.3334V15.0001C32.6667 14.116 33.0179 13.2682 33.643 12.6431C34.2681 12.0179 35.1159 11.6667 36 11.6667C36.8841 11.6667 37.7319 12.0179 38.357 12.6431C38.9821 13.2682 39.3333 14.116 39.3333 15.0001V18.0742" stroke="#555555" stroke-linecap="round" stroke-linejoin="round"/>
</svg>
