<svg width="72" height="40" viewBox="0 0 72 40" fill="none" xmlns="http://www.w3.org/2000/svg">
<path d="M27 17.6429H44M30.7778 22.2857H31.7222M35.5 22.2857H36.4444M29.8333 26H41.1667C41.9181 26 42.6388 25.7065 43.1701 25.1841C43.7015 24.6617 44 23.9531 44 23.2143V15.7857C44 15.0469 43.7015 14.3383 43.1701 13.8159C42.6388 13.2935 41.9181 13 41.1667 13H29.8333C29.0819 13 28.3612 13.2935 27.8299 13.8159C27.2985 14.3383 27 15.0469 27 15.7857V23.2143C27 23.9531 27.2985 24.6617 27.8299 25.1841C28.3612 25.7065 29.0819 26 29.8333 26Z" stroke="#555555" stroke-linecap="round" stroke-linejoin="round"/>
</svg>
