<svg width="101" height="12" viewBox="0 0 101 12" fill="none" xmlns="http://www.w3.org/2000/svg">
<g clip-path="url(#clip0_5003_17722)">
<path d="M45.9901 10.9265L49.9957 0.266498H52.6661L49.3281 9.1054H51.4348L50.7672 10.9265H45.9901ZM51.776 10.9265L53.2002 7.09184L54.0458 0.266498H56.4937L55.648 4.04191H55.7816L57.725 0.266498H60.3361L56.0189 7.13626L54.6096 10.9265H51.776ZM62.8729 10.9265L64.8164 6.04065H64.579L61.9383 10.9265H60.158L61.2262 6.04065H61.0185L59.2531 10.9265H57.0871L61.063 0.266498H63.8224L62.7097 5.93701H62.9174L66.0626 0.251693H69.1038L65.0982 10.9117L62.8729 10.9265ZM73.421 10.9265L77.4117 0.266498H80.0673L76.0765 10.9265H73.421ZM70.9286 5.55207L71.0028 5.53726C71.6407 5.53726 72.1303 5.34479 72.3676 4.69335L72.9314 3.16838C73.2133 2.44291 73.1539 1.96913 72.3528 1.96913H72.2786L70.9286 5.55207ZM66.2703 10.9265L70.261 0.266498H72.5457C74.771 0.266498 75.9727 1.8803 75.2309 4.10113L75.1419 4.36763C74.4446 6.4404 72.6347 7.22509 70.3203 7.22509L68.9258 10.9265H66.2703ZM88.0042 11.0449C85.8828 11.0449 84.9036 9.62359 85.6899 7.5064L88.4048 0.251693H91.0752L87.8707 8.79448C87.7372 9.14981 87.8707 9.35709 88.2416 9.35709C88.5828 9.35709 88.746 9.17942 88.9092 8.75006L92.1137 0.251693H94.7544L91.7428 8.27629C91.4016 9.22384 90.8972 9.9345 90.3037 10.3787C89.7103 10.8228 88.9389 11.0449 88.0042 11.0449ZM44.8923 1.80627C44.5214 1.80627 44.2841 2.02836 44.1209 2.44291L41.8065 8.5872C41.762 8.69084 41.7323 8.80929 41.7323 8.92773C41.7323 9.13501 41.9104 9.29787 42.2368 9.29787C42.6076 9.29787 42.8598 9.09059 43.023 8.66123L45.3077 2.54655C45.3522 2.4281 45.3819 2.32447 45.3967 2.19122C45.3819 1.98394 45.2039 1.80627 44.8923 1.80627ZM41.94 11.0449C39.2993 11.0449 38.8394 8.60201 39.9521 5.75935L40.323 4.8266C41.3318 2.26524 42.8153 0.118443 45.1593 0.118443C47.8001 0.118443 48.1858 2.57616 47.1325 5.38921L46.7764 6.33676C45.8269 8.92773 44.2692 11.0449 41.94 11.0449ZM81.5508 10.9265L81.1948 7.40276H81.0316L79.8299 10.9265H77.204L81.2096 0.266498H83.8651L82.3371 3.84943H82.5448L84.9333 0.251693H87.6779L83.4052 6.33676L84.0283 10.9117L81.5508 10.9265ZM95.1104 11.0449C93.6269 11.0449 92.5291 10.3194 92.5291 8.95734C92.5291 8.61681 92.6032 8.27629 92.7516 7.95056L93.0335 7.31393H95.3923L94.8582 8.75006C94.7099 9.17942 94.8434 9.41631 95.2143 9.41631C95.778 9.41631 96.0599 8.8389 96.1044 8.26148C96.1044 7.65445 95.8967 7.34354 95.4813 6.27754L95.3181 5.86299C94.9324 4.91543 94.6505 4.14555 94.6505 3.2128C94.6505 1.36211 96.1786 0.103638 98.4188 0.103638C99.7836 0.103638 100.881 0.88833 100.881 2.13199C100.867 2.48733 100.807 2.85746 100.674 3.19799L100.407 3.96788H98.0034L98.6116 2.28005C98.7006 1.99874 98.6265 1.73225 98.2259 1.73225C97.6325 1.73225 97.3803 2.23563 97.3209 2.88708C97.3209 3.44969 97.5583 4.20477 97.8402 4.85621L98.0182 5.25596C98.3891 6.08507 98.7748 7.12146 98.7748 7.84693C98.7748 9.80126 97.2468 11.0597 95.1104 11.0449Z" fill="white"/>
<path d="M27.5198 2.59097C27.0451 2.59097 26.5852 2.60577 26.1401 2.65019C24.7604 1.12522 21.6895 0 18.1438 0C14.5981 0 11.542 1.11041 10.1475 2.65019C9.68758 2.60577 9.22767 2.59097 8.76777 2.59097C3.94624 2.59097 0 4.51568 0 6.9586C0 9.34229 3.94624 11.267 8.76777 11.267C12.2986 11.267 15.3844 10.2306 16.7938 8.76487C17.2388 8.79448 17.6839 8.80929 18.1438 8.80929C18.6037 8.80929 19.0488 8.79448 19.4938 8.76487C20.9032 10.2454 23.989 11.267 27.5198 11.267C32.3414 11.267 36.2876 9.34228 36.2876 6.9734C36.2876 4.51568 32.3414 2.59097 27.5198 2.59097ZM27.5198 9.69762C24.6269 9.69762 20.384 8.88331 20.384 6.9586C20.384 5.59649 22.3868 4.69335 24.6269 4.30841C24.6566 4.30841 24.6863 4.26399 24.6714 4.23438V4.21957C24.5082 3.80502 24.2115 3.46449 23.8258 3.24241C23.7665 3.19799 23.6923 3.18319 23.6329 3.19799C20.8735 3.55333 18.663 5.27077 18.663 6.9586C18.663 7.10665 18.6779 7.25471 18.7076 7.40276C18.5147 7.41757 18.3218 7.41757 18.129 7.41757C17.9509 7.41757 17.7581 7.41757 17.5504 7.40276C17.4762 7.40276 17.4169 7.40276 17.3427 7.38796C14.8948 7.25471 11.6014 6.4404 11.186 4.73777C11.1711 4.69335 11.1415 4.66374 11.1118 4.66374C10.5777 4.58971 10.0436 4.5601 9.49471 4.5453C9.42054 4.5453 9.37603 4.58971 9.39087 4.66374C9.58373 6.48482 11.8239 7.87654 14.7761 8.48356C13.3223 9.32748 10.7409 9.69762 8.76777 9.69762C5.94903 9.69762 1.79509 8.88331 1.79509 6.9586C1.79509 4.88582 5.94903 4.07152 8.76777 4.07152C11.3491 4.07152 15.4734 4.76738 15.8888 6.67729C15.8888 6.73651 15.9482 6.79573 16.0075 6.79573C16.5119 6.88457 17.0311 6.92898 17.5504 6.94379C17.5949 6.94379 17.6246 6.91418 17.6246 6.88457C17.6246 6.88457 17.6246 6.88457 17.6246 6.86976C17.5207 5.04868 15.1767 3.55333 12.1058 2.91669C13.5003 1.90991 16.1558 1.39172 18.1586 1.39172C20.8735 1.39172 24.8198 2.35408 25.1313 4.18996C25.1313 4.20477 25.1313 4.21957 25.1313 4.23438C25.1462 4.2936 25.1462 4.36763 25.1462 4.42685C25.1462 5.75935 23.2917 6.64768 20.9922 7.16587C20.9329 7.18068 20.918 7.21029 20.9477 7.25471C21.1851 7.66926 21.556 8.00979 21.9862 8.23187C22.0604 8.27629 22.1346 8.29109 22.2087 8.27629C25.0571 7.63965 26.9264 6.07026 26.9264 4.42685C26.9264 4.30841 26.9116 4.18996 26.8967 4.07152C27.1193 4.07152 27.327 4.05671 27.5347 4.05671C30.3534 4.05671 34.5074 4.87102 34.5074 6.94379C34.4925 8.88331 30.3386 9.69762 27.5198 9.69762Z" fill="white"/>
</g>
<defs>
<clipPath id="clip0_5003_17722">
<rect width="100.867" height="11.267" fill="white"/>
</clipPath>
</defs>
</svg>
