<svg width="72" height="40" viewBox="0 0 72 40" fill="none" xmlns="http://www.w3.org/2000/svg">
<path d="M36 18.3334C36.884 18.3334 37.7319 17.9822 38.357 17.3571C38.9821 16.732 39.3333 15.8841 39.3333 15.0001C39.3333 14.116 38.9821 13.2682 38.357 12.6431C37.7319 12.0179 36.884 11.6667 36 11.6667C35.1159 11.6667 34.2681 12.0179 33.643 12.6431C33.0178 13.2682 32.6667 14.116 32.6667 15.0001C32.6667 15.8841 33.0178 16.732 33.643 17.3571C34.2681 17.9822 35.1159 18.3334 36 18.3334Z" stroke="#555555" stroke-linecap="round" stroke-linejoin="round"/>
<path d="M43.5 28.3333C43.5 27.3483 43.306 26.3731 42.9291 25.4631C42.5522 24.5532 41.9997 23.7264 41.3033 23.03C40.6069 22.3335 39.7801 21.7811 38.8701 21.4042C37.9602 21.0272 36.9849 20.8333 36 20.8333C35.0151 20.8333 34.0398 21.0272 33.1299 21.4042C32.2199 21.7811 31.3931 22.3335 30.6967 23.03C30.0003 23.7264 29.4478 24.5532 29.0709 25.4631C28.694 26.3731 28.5 27.3483 28.5 28.3333" stroke="#555555" stroke-linecap="round" stroke-linejoin="round"/>
</svg>
