<svg width="63" height="42" viewBox="0 0 63 42" fill="none" xmlns="http://www.w3.org/2000/svg">
<path d="M23.2898 23.4177L23.2643 17.0981L29.2921 14.8535L23.2217 12.8579L23.0946 6.63147L19.4122 11.6552L13.3885 9.79114L16.8851 15.0647L13.4721 20.3479L19.4173 18.3701L23.2898 23.4177Z" fill="#FAFAF8"/>
<path d="M24.0424 30.0604H34.8391L48.3706 15.0394L34.7739 0H24.0813L36.798 15.0173L24.0424 30.0604Z" fill="#FAFAF8"/>
<path d="M7.62939e-06 38.1458C7.62939e-06 36.1937 1.64408 34.274 3.89102 34.274C5.42156 34.274 7.13918 36.0061 7.13918 36.0061L5.27826 37.093C5.27826 37.093 4.97086 36.2779 3.82335 36.2779C2.65686 36.2779 1.97048 37.2393 1.96243 38.1118C1.95344 39.0872 2.75007 39.9458 3.75568 39.9458C4.5447 39.9458 5.37976 39.0968 5.37976 39.0968L6.97 40.2515C6.97 40.2515 5.78001 41.7119 3.78952 41.7119C1.79509 41.7119 7.62939e-06 40.5047 7.62939e-06 38.1458Z" fill="#FAFAF8"/>
<path fill-rule="evenodd" clip-rule="evenodd" d="M11.6024 34.3729C9.50947 34.3729 7.81587 36.0509 7.81587 38.1142C7.81587 40.1775 9.50947 41.8489 11.6024 41.8489C13.6952 41.8489 15.3954 40.1775 15.3954 38.1142C15.3954 36.0509 13.6952 34.3729 11.6024 34.3729ZM11.6024 36.2436C12.6488 36.2436 13.4989 37.0826 13.4989 38.1142C13.4989 39.1459 12.6488 39.9783 11.6024 39.9783C10.5559 39.9783 9.71241 39.1459 9.71241 38.1142C9.71241 37.0826 10.5559 36.2436 11.6024 36.2436Z" fill="#FAFAF8"/>
<path fill-rule="evenodd" clip-rule="evenodd" d="M16.8181 34.4786V41.4721H18.6422V37.6924L21.6517 41.4721H23.4494V34.4786H21.6187V38.5657L18.6422 34.4786H16.8181Z" fill="#FAFAF8"/>
<path fill-rule="evenodd" clip-rule="evenodd" d="M24.9377 34.4786L27.4006 41.4721H30.1137L32.5766 34.4786H30.5812L28.7571 40.0311L26.933 34.4786H24.9377Z" fill="#FAFAF8"/>
<path fill-rule="evenodd" clip-rule="evenodd" d="M33.8867 34.4786V41.4721H39.4907V39.8592H35.7108V38.6893H39.1087V37.2615H35.7108V36.1444H39.4907V34.4786H33.8867Z" fill="#FAFAF8"/>
<path fill-rule="evenodd" clip-rule="evenodd" d="M56.4719 34.4786V41.4721H62.0759V39.8592H58.296V38.6893H61.694V37.2615H58.296V36.1444H62.0759V34.4786H56.4719Z" fill="#FAFAF8"/>
<path fill-rule="evenodd" clip-rule="evenodd" d="M41.5521 34.6108V41.5051H43.172V38.7884H44.1005L45.523 41.5051H47.6105L46.2012 38.5571C48.0334 37.4543 47.6707 35.1463 45.6283 34.6108H41.5521ZM43.1391 36.2766H45.0093C45.6591 36.2766 45.6169 37.2879 45.0093 37.2879H43.1391V36.2766Z" fill="#FAFAF8"/>
<path d="M48.584 40.5395C48.6558 40.9718 50.3537 41.7883 52.0292 41.7883C53.5678 41.7883 54.8045 41.0467 54.8045 39.5748C54.8045 37.7645 52.6991 37.3455 52.6991 37.3455C52.6991 37.3455 50.9499 37.3207 50.9047 36.505C50.8835 36.1211 51.4163 35.9046 51.8857 35.9046C52.6542 35.9046 53.5126 36.6731 53.5126 36.6731L54.7327 35.3522C54.7327 35.3522 53.1888 34.1274 51.8857 34.1274C50.6412 34.1274 48.8711 34.9455 48.8711 36.649C48.8711 38.0985 50.9201 38.7651 50.9201 38.7651C50.9201 38.7651 53.0819 38.9963 53.0819 39.675C53.0819 40.1368 52.2979 40.2754 51.8378 40.2754C50.7208 40.2754 49.7803 39.2907 49.7803 39.2907L48.584 40.5395Z" fill="#FAFAF8"/>
</svg>
