<svg width="72" height="40" viewBox="0 0 72 40" fill="none" xmlns="http://www.w3.org/2000/svg">
<g clip-path="url(#clip0_5003_17661)">
<path d="M23 11.5H37C37.8284 11.5 38.5 12.1716 38.5 13V27C38.5 27.8284 37.8284 28.5 37 28.5H23C22.1716 28.5 21.5 27.8284 21.5 27V13C21.5 12.1716 22.1716 11.5 23 11.5Z" stroke="#555555"/>
<path d="M25.693 16.3295C26.2456 16.3025 26.8942 16.3309 27.4488 16.3248C27.8607 16.3378 28.2252 16.5036 28.5007 16.7994C28.9376 17.2684 28.8874 17.7561 28.8876 18.3558L28.8873 19.5368C28.8867 20.3866 28.8923 21.2422 28.8828 22.0923C28.8773 22.5778 28.7163 22.9051 28.3587 23.2329C27.6899 23.7215 27.1633 23.5356 26.3887 23.5717C26.2212 23.5795 25.6764 23.5972 25.5662 23.4856C25.4667 23.2456 25.5038 21.9533 25.5039 21.6186L25.5039 18.6911L25.5036 17.2937C25.5036 17.0526 25.4931 16.7322 25.5267 16.4922C25.5383 16.4095 25.6251 16.3676 25.693 16.3295Z" fill="#555555"/>
<path d="M26.5336 17.2885C26.9162 17.3131 27.682 17.1562 27.8236 17.5898C27.8824 17.7698 27.8584 18.4068 27.8583 18.6402L27.857 20.3966L27.8596 21.5594C27.8602 21.7756 27.8681 22.0086 27.8468 22.2224C27.8376 22.3142 27.7623 22.4034 27.7039 22.4698C27.4367 22.6641 26.8759 22.6043 26.5254 22.6017C26.5438 20.8487 26.4926 19.0329 26.5336 17.2885Z" fill="white"/>
<path d="M32.6799 16.3143C33.0492 16.2606 33.5843 16.3418 33.9198 16.5063C34.0011 16.5462 34.172 16.6465 34.1941 16.7418C34.2382 16.9314 34.1304 17.2901 34.0514 17.4669C34.0134 17.5518 33.8987 17.5755 33.8168 17.6C33.7265 17.5743 33.5688 17.5007 33.4813 17.463C32.7942 17.1662 32.0762 17.3944 32.09 18.2522C32.1015 18.9636 32.7332 19.1724 33.2537 19.474C34.0261 19.9009 34.439 20.5279 34.4492 21.4149C34.4635 22.6737 33.7783 23.5774 32.4679 23.604C32.1513 23.6026 31.7764 23.5213 31.4927 23.4026C31.312 23.3269 31.0311 23.2096 31.0096 23.0079C30.9935 22.8568 31.0453 22.614 31.0903 22.474C31.2112 22.0985 31.4049 22.1903 31.6843 22.3295C32.164 22.5828 32.8773 22.7157 33.2485 22.2077C33.4201 21.9729 33.461 21.6038 33.4172 21.3198C33.2992 20.5546 32.4609 20.4057 31.9344 20.0117C31.4835 19.6795 31.1871 19.2427 31.106 18.6826C30.9425 17.555 31.4867 16.4843 32.6799 16.3143Z" fill="#555555"/>
</g>
<path fill-rule="evenodd" clip-rule="evenodd" d="M45 17C45.1591 17 45.3117 17.0632 45.4243 17.1757C45.5368 17.2883 45.6 17.4409 45.6 17.6V19.4H47.4C47.5591 19.4 47.7117 19.4632 47.8243 19.5757C47.9368 19.6883 48 19.8409 48 20C48 20.1591 47.9368 20.3117 47.8243 20.4243C47.7117 20.5368 47.5591 20.6 47.4 20.6H45.6V22.4C45.6 22.5591 45.5368 22.7117 45.4243 22.8243C45.3117 22.9368 45.1591 23 45 23C44.8409 23 44.6883 22.9368 44.5757 22.8243C44.4632 22.7117 44.4 22.5591 44.4 22.4V20.6H42.6C42.4409 20.6 42.2883 20.5368 42.1757 20.4243C42.0632 20.3117 42 20.1591 42 20C42 19.8409 42.0632 19.6883 42.1757 19.5757C42.2883 19.4632 42.4409 19.4 42.6 19.4H44.4V17.6C44.4 17.4409 44.4632 17.2883 44.5757 17.1757C44.6883 17.0632 44.8409 17 45 17Z" fill="#555555"/>
<defs>
<clipPath id="clip0_5003_17661">
<rect width="18" height="18" fill="white" transform="translate(21 11)"/>
</clipPath>
</defs>
</svg>
